<svg width="24" height="24" viewBox="0 0 24 24" fill="none" xmlns="http://www.w3.org/2000/svg">
<path d="M5 13.0006H16.17L11.29 17.8806C10.9 18.2706 10.9 18.9106 11.29 19.3006C11.68 19.6906 12.31 19.6906 12.7 19.3006L19.29 12.7106C19.68 12.3206 19.68 11.6906 19.29 11.3006L12.71 4.70065C12.6175 4.60794 12.5076 4.5344 12.3866 4.48421C12.2657 4.43403 12.136 4.4082 12.005 4.4082C11.874 4.4082 11.7443 4.43403 11.6234 4.48421C11.5024 4.5344 11.3925 4.60794 11.3 4.70065C10.91 5.09065 10.91 5.72065 11.3 6.11065L16.17 11.0006H5C4.45 11.0006 4 11.4506 4 12.0006C4 12.5506 4.45 13.0006 5 13.0006Z" fill="white"/>
</svg>
