<svg width="123" height="28" viewBox="0 0 123 28" fill="none" xmlns="http://www.w3.org/2000/svg">
<path d="M9.32465 15.8804H11.033C10.944 16.699 10.7097 17.4316 10.3301 18.0781C9.95045 18.7247 9.41363 19.2378 8.71962 19.6174C8.02561 19.9911 7.15958 20.178 6.12153 20.178C5.36227 20.178 4.67122 20.0356 4.04839 19.7509C3.4315 19.4661 2.90061 19.0628 2.45573 18.5408C2.01085 18.0129 1.66681 17.3811 1.42361 16.6456C1.18634 15.9042 1.06771 15.0796 1.06771 14.1721V12.8819C1.06771 11.9744 1.18634 11.1529 1.42361 10.4173C1.66681 9.67585 2.01382 9.04116 2.46463 8.51324C2.92137 7.98532 3.47005 7.57899 4.11068 7.29427C4.7513 7.00955 5.472 6.86719 6.27279 6.86719C7.25152 6.86719 8.07899 7.05107 8.75521 7.41884C9.43142 7.7866 9.95638 8.29673 10.3301 8.94922C10.7097 9.59578 10.944 10.3461 11.033 11.2003H9.32465C9.24161 10.5953 9.08738 10.0762 8.86198 9.64323C8.63657 9.20428 8.31626 8.86618 7.90104 8.62891C7.48582 8.39164 6.94307 8.273 6.27279 8.273C5.69741 8.273 5.19025 8.38274 4.7513 8.60221C4.31829 8.82169 3.95349 9.1331 3.6569 9.53646C3.36625 9.93982 3.14677 10.4232 2.99848 10.9868C2.85019 11.5503 2.77604 12.1761 2.77604 12.8641V14.1721C2.77604 14.8068 2.84129 15.4029 2.97179 15.9605C3.10822 16.5181 3.31286 17.0075 3.58572 17.4286C3.85858 17.8498 4.20558 18.1819 4.62674 18.4251C5.04789 18.6624 5.54615 18.781 6.12153 18.781C6.85113 18.781 7.43244 18.6654 7.86545 18.434C8.29847 18.2027 8.62471 17.8705 8.84418 17.4375C9.06959 17.0045 9.22974 16.4855 9.32465 15.8804ZM19.0597 17.7756V10.3728H20.7146V20H19.1397L19.0597 17.7756ZM19.3711 15.747L20.0562 15.7292C20.0562 16.3698 19.988 16.963 19.8515 17.5087C19.721 18.0485 19.5075 18.5171 19.2109 18.9145C18.9143 19.3119 18.5258 19.6233 18.0453 19.8487C17.5649 20.0682 16.9806 20.178 16.2925 20.178C15.8239 20.178 15.3939 20.1097 15.0024 19.9733C14.6168 19.8369 14.2846 19.6263 14.0058 19.3416C13.7271 19.0569 13.5105 18.6861 13.3563 18.2294C13.208 17.7726 13.1339 17.224 13.1339 16.5833V10.3728H14.7799V16.6011C14.7799 17.0341 14.8274 17.393 14.9223 17.6777C15.0231 17.9565 15.1566 18.179 15.3227 18.3451C15.4947 18.5052 15.6845 18.6179 15.8921 18.6832C16.1057 18.7484 16.3251 18.781 16.5505 18.781C17.2505 18.781 17.8051 18.6476 18.2144 18.3806C18.6237 18.1078 18.9173 17.743 19.0953 17.2862C19.2791 16.8236 19.3711 16.3105 19.3711 15.747ZM24.9153 11.8854V20H23.2693V10.3728H24.8708L24.9153 11.8854ZM27.9227 10.3194L27.9138 11.8498C27.7774 11.8202 27.6469 11.8024 27.5223 11.7964C27.4037 11.7846 27.2673 11.7786 27.113 11.7786C26.7334 11.7786 26.3983 11.838 26.1076 11.9566C25.8169 12.0752 25.5708 12.2413 25.3691 12.4549C25.1674 12.6684 25.0073 12.9235 24.8886 13.2201C24.7759 13.5107 24.7018 13.831 24.6662 14.181L24.2035 14.4479C24.2035 13.8666 24.2599 13.3209 24.3726 12.8108C24.4912 12.3006 24.6721 11.8498 24.9153 11.4583C25.1585 11.0609 25.467 10.7525 25.8407 10.533C26.2203 10.3076 26.6711 10.1949 27.1931 10.1949C27.3117 10.1949 27.4482 10.2097 27.6024 10.2394C27.7566 10.2631 27.8634 10.2898 27.9227 10.3194ZM34.8105 18.3539V13.398C34.8105 13.0184 34.7334 12.6892 34.5792 12.4104C34.4309 12.1257 34.2055 11.9062 33.9029 11.752C33.6004 11.5977 33.2267 11.5206 32.7818 11.5206C32.3666 11.5206 32.0018 11.5918 31.6874 11.7342C31.379 11.8765 31.1358 12.0634 30.9578 12.2947C30.7858 12.526 30.6998 12.7752 30.6998 13.0421H29.0538C29.0538 12.6981 29.1427 12.357 29.3207 12.0189C29.4986 11.6808 29.7537 11.3753 30.0859 11.1024C30.424 10.8236 30.8273 10.6042 31.296 10.444C31.7705 10.2779 32.2984 10.1949 32.8797 10.1949C33.5797 10.1949 34.1966 10.3135 34.7304 10.5508C35.2702 10.7881 35.6914 11.1469 35.9939 11.6274C36.3023 12.1019 36.4565 12.6981 36.4565 13.4158V17.9002C36.4565 18.2205 36.4832 18.5616 36.5366 18.9234C36.5959 19.2852 36.6819 19.5966 36.7946 19.8576V20H35.0774C34.9944 19.8102 34.9291 19.5581 34.8817 19.2437C34.8342 18.9234 34.8105 18.6268 34.8105 18.3539ZM35.0952 14.1632L35.113 15.3199H33.4492C32.9806 15.3199 32.5624 15.3584 32.1946 15.4355C31.8268 15.5067 31.5184 15.6165 31.2693 15.7648C31.0201 15.913 30.8303 16.0999 30.6998 16.3253C30.5693 16.5448 30.5041 16.8028 30.5041 17.0994C30.5041 17.4019 30.5723 17.6777 30.7087 17.9269C30.8451 18.176 31.0498 18.3747 31.3226 18.523C31.6014 18.6654 31.9425 18.7365 32.3459 18.7365C32.8501 18.7365 33.2949 18.6298 33.6805 18.4162C34.0661 18.2027 34.3715 17.9417 34.597 17.6332C34.8283 17.3248 34.9529 17.0252 34.9706 16.7346L35.6736 17.5265C35.632 17.7756 35.5193 18.0514 35.3354 18.3539C35.1516 18.6565 34.9054 18.9471 34.597 19.2259C34.2944 19.4988 33.9326 19.7271 33.5114 19.911C33.0962 20.089 32.6276 20.178 32.1056 20.178C31.4531 20.178 30.8807 20.0504 30.3884 19.7954C29.902 19.5403 29.5224 19.1992 29.2495 18.7721C28.9826 18.3391 28.8491 17.8557 28.8491 17.3218C28.8491 16.8058 28.95 16.352 29.1516 15.9605C29.3533 15.5631 29.644 15.2339 30.0236 14.9729C30.4032 14.7059 30.86 14.5043 31.3938 14.3678C31.9277 14.2314 32.5238 14.1632 33.1822 14.1632H35.0952ZM43.1219 10.3728V11.6363H37.9168V10.3728H43.1219ZM39.6785 8.03277H41.3246V17.6155C41.3246 17.9417 41.375 18.1879 41.4758 18.3539C41.5767 18.52 41.7072 18.6298 41.8673 18.6832C42.0275 18.7365 42.1995 18.7632 42.3834 18.7632C42.5198 18.7632 42.6622 18.7514 42.8105 18.7276C42.9647 18.698 43.0804 18.6743 43.1575 18.6565L43.1664 20C43.0359 20.0415 42.8639 20.0801 42.6503 20.1157C42.4427 20.1572 42.1906 20.178 41.894 20.178C41.4907 20.178 41.1199 20.0979 40.7818 19.9377C40.4437 19.7776 40.1738 19.5106 39.9722 19.1369C39.7764 18.7573 39.6785 18.2472 39.6785 17.6066V8.03277ZM44.4843 15.2932V15.0885C44.4843 14.3945 44.5851 13.7509 44.7868 13.1578C44.9885 12.5587 45.2791 12.0396 45.6588 11.6007C46.0384 11.1558 46.4981 10.8118 47.0379 10.5686C47.5777 10.3194 48.1827 10.1949 48.853 10.1949C49.5292 10.1949 50.1372 10.3194 50.677 10.5686C51.2227 10.8118 51.6854 11.1558 52.065 11.6007C52.4506 12.0396 52.7442 12.5587 52.9459 13.1578C53.1476 13.7509 53.2484 14.3945 53.2484 15.0885V15.2932C53.2484 15.9872 53.1476 16.6308 52.9459 17.224C52.7442 17.8171 52.4506 18.3362 52.065 18.781C51.6854 19.22 51.2257 19.564 50.6859 19.8132C50.152 20.0564 49.547 20.178 48.8708 20.178C48.1946 20.178 47.5866 20.0564 47.0468 19.8132C46.507 19.564 46.0443 19.22 45.6588 18.781C45.2791 18.3362 44.9885 17.8171 44.7868 17.224C44.5851 16.6308 44.4843 15.9872 44.4843 15.2932ZM46.1303 15.0885V15.2932C46.1303 15.7737 46.1867 16.2274 46.2994 16.6545C46.4121 17.0757 46.5811 17.4494 46.8066 17.7756C47.0379 18.1019 47.3256 18.3599 47.6696 18.5497C48.0137 18.7336 48.414 18.8255 48.8708 18.8255C49.3216 18.8255 49.7161 18.7336 50.0542 18.5497C50.3982 18.3599 50.6829 18.1019 50.9083 17.7756C51.1337 17.4494 51.3028 17.0757 51.4155 16.6545C51.5341 16.2274 51.5934 15.7737 51.5934 15.2932V15.0885C51.5934 14.614 51.5341 14.1662 51.4155 13.745C51.3028 13.3179 51.1308 12.9413 50.8994 12.615C50.674 12.2828 50.3893 12.0218 50.0453 11.832C49.7072 11.6422 49.3097 11.5473 48.853 11.5473C48.4022 11.5473 48.0048 11.6422 47.6607 11.832C47.3226 12.0218 47.0379 12.2828 46.8066 12.615C46.5811 12.9413 46.4121 13.3179 46.2994 13.745C46.1867 14.1662 46.1303 14.614 46.1303 15.0885ZM57.0042 11.8854V20H55.3582V10.3728H56.9597L57.0042 11.8854ZM60.0116 10.3194L60.0027 11.8498C59.8663 11.8202 59.7358 11.8024 59.6112 11.7964C59.4926 11.7846 59.3562 11.7786 59.2019 11.7786C58.8223 11.7786 58.4872 11.838 58.1965 11.9566C57.9059 12.0752 57.6597 12.2413 57.458 12.4549C57.2563 12.6684 57.0962 12.9235 56.9775 13.2201C56.8648 13.5107 56.7907 13.831 56.7551 14.181L56.2924 14.4479C56.2924 13.8666 56.3488 13.3209 56.4615 12.8108C56.5801 12.3006 56.761 11.8498 57.0042 11.4583C57.2474 11.0609 57.5559 10.7525 57.9296 10.533C58.3092 10.3076 58.76 10.1949 59.282 10.1949C59.4006 10.1949 59.5371 10.2097 59.6913 10.2394C59.8455 10.2631 59.9523 10.2898 60.0116 10.3194Z" fill="#6EBD49"/>
<path d="M71.1713 14.9195H67.7101V13.5226H71.1713C71.8416 13.5226 72.3843 13.4158 72.7996 13.2023C73.2148 12.9887 73.5173 12.6921 73.7071 12.3125C73.9029 11.9329 74.0007 11.4999 74.0007 11.0135C74.0007 10.5686 73.9029 10.1504 73.7071 9.7589C73.5173 9.36741 73.2148 9.05302 72.7996 8.81576C72.3843 8.57256 71.8416 8.45096 71.1713 8.45096H68.1105V20H66.3933V7.04514H71.1713C72.15 7.04514 72.9775 7.21419 73.6537 7.5523C74.3299 7.89041 74.843 8.35901 75.193 8.95812C75.543 9.55129 75.718 10.2305 75.718 10.9957C75.718 11.8261 75.543 12.5349 75.193 13.1222C74.843 13.7094 74.3299 14.1573 73.6537 14.4657C72.9775 14.7682 72.15 14.9195 71.1713 14.9195ZM79.3314 6.33333V20H77.6854V6.33333H79.3314ZM78.9399 14.8216L78.2548 14.7949C78.2608 14.1365 78.3586 13.5285 78.5485 12.9709C78.7383 12.4074 79.0052 11.918 79.3492 11.5028C79.6933 11.0876 80.1026 10.7673 80.5771 10.5419C81.0576 10.3105 81.5885 10.1949 82.1698 10.1949C82.6443 10.1949 83.0714 10.2601 83.451 10.3906C83.8306 10.5152 84.1539 10.7169 84.4208 10.9957C84.6937 11.2745 84.9013 11.6363 85.0437 12.0812C85.186 12.5201 85.2572 13.0569 85.2572 13.6916V20H83.6023V13.6738C83.6023 13.1696 83.5281 12.7663 83.3798 12.4638C83.2315 12.1553 83.015 11.9329 82.7303 11.7964C82.4456 11.6541 82.0956 11.5829 81.6804 11.5829C81.2711 11.5829 80.8974 11.6689 80.5593 11.8409C80.2271 12.0129 79.9394 12.2502 79.6962 12.5527C79.459 12.8553 79.2721 13.2023 79.1357 13.5938C79.0052 13.9793 78.9399 14.3886 78.9399 14.8216ZM87.3314 15.2932V15.0885C87.3314 14.3945 87.4323 13.7509 87.6339 13.1578C87.8356 12.5587 88.1263 12.0396 88.5059 11.6007C88.8855 11.1558 89.3452 10.8118 89.885 10.5686C90.4248 10.3194 91.0298 10.1949 91.7001 10.1949C92.3763 10.1949 92.9843 10.3194 93.5241 10.5686C94.0698 10.8118 94.5325 11.1558 94.9121 11.6007C95.2977 12.0396 95.5913 12.5587 95.793 13.1578C95.9947 13.7509 96.0955 14.3945 96.0955 15.0885V15.2932C96.0955 15.9872 95.9947 16.6308 95.793 17.224C95.5913 17.8171 95.2977 18.3362 94.9121 18.781C94.5325 19.22 94.0728 19.564 93.533 19.8132C92.9992 20.0564 92.3941 20.178 91.7179 20.178C91.0417 20.178 90.4337 20.0564 89.8939 19.8132C89.3541 19.564 88.8915 19.22 88.5059 18.781C88.1263 18.3362 87.8356 17.8171 87.6339 17.224C87.4323 16.6308 87.3314 15.9872 87.3314 15.2932ZM88.9775 15.0885V15.2932C88.9775 15.7737 89.0338 16.2274 89.1465 16.6545C89.2592 17.0757 89.4283 17.4494 89.6537 17.7756C89.885 18.1019 90.1727 18.3599 90.5167 18.5497C90.8608 18.7336 91.2612 18.8255 91.7179 18.8255C92.1687 18.8255 92.5632 18.7336 92.9013 18.5497C93.2453 18.3599 93.5301 18.1019 93.7555 17.7756C93.9809 17.4494 94.1499 17.0757 94.2626 16.6545C94.3813 16.2274 94.4406 15.7737 94.4406 15.2932V15.0885C94.4406 14.614 94.3813 14.1662 94.2626 13.745C94.1499 13.3179 93.9779 12.9413 93.7466 12.615C93.5212 12.2828 93.2364 12.0218 92.8924 11.832C92.5543 11.6422 92.1569 11.5473 91.7001 11.5473C91.2493 11.5473 90.8519 11.6422 90.5078 11.832C90.1697 12.0218 89.885 12.2828 89.6537 12.615C89.4283 12.9413 89.2592 13.3179 89.1465 13.745C89.0338 14.1662 88.9775 14.614 88.9775 15.0885ZM102.236 10.3728V11.6363H97.0308V10.3728H102.236ZM98.7926 8.03277H100.439V17.6155C100.439 17.9417 100.489 18.1879 100.59 18.3539C100.691 18.52 100.821 18.6298 100.981 18.6832C101.142 18.7365 101.314 18.7632 101.497 18.7632C101.634 18.7632 101.776 18.7514 101.925 18.7276C102.079 18.698 102.194 18.6743 102.272 18.6565L102.28 20C102.15 20.0415 101.978 20.0801 101.764 20.1157C101.557 20.1572 101.305 20.178 101.008 20.178C100.605 20.178 100.234 20.0979 99.8959 19.9377C99.5577 19.7776 99.2879 19.5106 99.0862 19.1369C98.8904 18.7573 98.7926 18.2472 98.7926 17.6066V8.03277ZM103.598 15.2932V15.0885C103.598 14.3945 103.699 13.7509 103.901 13.1578C104.103 12.5587 104.393 12.0396 104.773 11.6007C105.152 11.1558 105.612 10.8118 106.152 10.5686C106.692 10.3194 107.297 10.1949 107.967 10.1949C108.643 10.1949 109.251 10.3194 109.791 10.5686C110.337 10.8118 110.799 11.1558 111.179 11.6007C111.565 12.0396 111.858 12.5587 112.06 13.1578C112.262 13.7509 112.362 14.3945 112.362 15.0885V15.2932C112.362 15.9872 112.262 16.6308 112.06 17.224C111.858 17.8171 111.565 18.3362 111.179 18.781C110.799 19.22 110.34 19.564 109.8 19.8132C109.266 20.0564 108.661 20.178 107.985 20.178C107.309 20.178 106.701 20.0564 106.161 19.8132C105.621 19.564 105.158 19.22 104.773 18.781C104.393 18.3362 104.103 17.8171 103.901 17.224C103.699 16.6308 103.598 15.9872 103.598 15.2932ZM105.244 15.0885V15.2932C105.244 15.7737 105.301 16.2274 105.413 16.6545C105.526 17.0757 105.695 17.4494 105.921 17.7756C106.152 18.1019 106.44 18.3599 106.784 18.5497C107.128 18.7336 107.528 18.8255 107.985 18.8255C108.436 18.8255 108.83 18.7336 109.168 18.5497C109.512 18.3599 109.797 18.1019 110.022 17.7756C110.248 17.4494 110.417 17.0757 110.53 16.6545C110.648 16.2274 110.707 15.7737 110.707 15.2932V15.0885C110.707 14.614 110.648 14.1662 110.53 13.745C110.417 13.3179 110.245 12.9413 110.013 12.615C109.788 12.2828 109.503 12.0218 109.159 11.832C108.821 11.6422 108.424 11.5473 107.967 11.5473C107.516 11.5473 107.119 11.6422 106.775 11.832C106.437 12.0218 106.152 12.2828 105.921 12.615C105.695 12.9413 105.526 13.3179 105.413 13.745C105.301 14.1662 105.244 14.614 105.244 15.0885ZM120.078 17.4464C120.078 17.2091 120.024 16.9897 119.918 16.788C119.817 16.5804 119.606 16.3935 119.286 16.2274C118.971 16.0554 118.497 15.9071 117.862 15.7826C117.328 15.6698 116.845 15.5364 116.412 15.3822C115.985 15.2279 115.62 15.0411 115.317 14.8216C115.021 14.6021 114.793 14.3441 114.632 14.0475C114.472 13.7509 114.392 13.4039 114.392 13.0065C114.392 12.6269 114.475 12.268 114.641 11.9299C114.813 11.5918 115.054 11.2922 115.362 11.0313C115.676 10.7703 116.053 10.5656 116.492 10.4173C116.931 10.269 117.42 10.1949 117.96 10.1949C118.731 10.1949 119.39 10.3313 119.935 10.6042C120.481 10.877 120.899 11.2418 121.19 11.6986C121.481 12.1494 121.626 12.6506 121.626 13.2023H119.98C119.98 12.9353 119.9 12.6773 119.74 12.4282C119.585 12.1731 119.357 11.9625 119.054 11.7964C118.758 11.6304 118.393 11.5473 117.96 11.5473C117.503 11.5473 117.133 11.6185 116.848 11.7609C116.569 11.8973 116.364 12.0723 116.234 12.2858C116.109 12.4993 116.047 12.7248 116.047 12.962C116.047 13.14 116.077 13.3001 116.136 13.4425C116.201 13.5789 116.314 13.7065 116.474 13.8251C116.634 13.9378 116.86 14.0446 117.15 14.1454C117.441 14.2462 117.812 14.3471 118.263 14.4479C119.051 14.6259 119.701 14.8394 120.211 15.0885C120.721 15.3377 121.101 15.6432 121.35 16.005C121.599 16.3668 121.724 16.8058 121.724 17.3218C121.724 17.743 121.635 18.1285 121.457 18.4785C121.285 18.8285 121.033 19.131 120.701 19.3861C120.374 19.6352 119.983 19.8309 119.526 19.9733C119.075 20.1097 118.568 20.178 118.005 20.178C117.156 20.178 116.439 20.0267 115.851 19.7242C115.264 19.4217 114.819 19.0302 114.517 18.5497C114.214 18.0692 114.063 17.5621 114.063 17.0282H115.718C115.742 17.479 115.872 17.8379 116.109 18.1048C116.347 18.3658 116.637 18.5527 116.981 18.6654C117.325 18.7721 117.666 18.8255 118.005 18.8255C118.455 18.8255 118.832 18.7662 119.135 18.6476C119.443 18.5289 119.677 18.3658 119.837 18.1582C119.998 17.9506 120.078 17.7133 120.078 17.4464Z" fill="black" fill-opacity="0.87"/>
</svg>
