<svg width="56.005" height="15" viewBox="0 0 56.005 15" fill="none" xmlns="http://www.w3.org/2000/svg">
<path d="M4.836 8.69151H1.333V7.27756H4.836C5.515 7.27756 6.064 7.16949 6.484 6.95334C6.904 6.7372 7.211 6.43699 7.403 6.05273C7.601 5.66848 7.7 5.23018 7.7 4.73785C7.7 4.28754 7.601 3.86426 7.403 3.46799C7.211 3.07172 6.904 2.75351 6.484 2.51335C6.064 2.26718 5.515 2.1441 4.836 2.1441H1.738V13.834H0V0.72114H4.836C5.827 0.72114 6.664 0.89225 7.349 1.23448C8.033 1.57671 8.553 2.05103 8.907 2.65744C9.261 3.25785 9.438 3.94531 9.438 4.71983C9.438 5.5604 9.261 6.27789 8.907 6.87229C8.553 7.46669 8.033 7.91999 7.349 8.2322C6.664 8.53841 5.827 8.69151 4.836 8.69151ZM13.096 0.00065V13.834H11.43V0.00065H13.096ZM12.699 8.59245L12.006 8.56543C12.012 7.89898 12.111 7.28356 12.303 6.71918C12.495 6.1488 12.765 5.65346 13.114 5.23318C13.462 4.8129 13.876 4.48868 14.357 4.26053C14.843 4.02637 15.38 3.90929 15.969 3.90929C16.449 3.90929 16.881 3.97533 17.266 4.10742C17.65 4.23351 17.977 4.43764 18.247 4.71983C18.523 5.00203 18.734 5.36827 18.878 5.81858C19.022 6.26288 19.094 6.80624 19.094 7.44868V13.834H17.419V7.43066C17.419 6.92032 17.344 6.51204 17.193 6.20584C17.043 5.89363 16.824 5.66848 16.536 5.53038C16.248 5.38628 15.894 5.31424 15.473 5.31424C15.059 5.31424 14.681 5.40129 14.339 5.57541C14.002 5.74953 13.711 5.98969 13.465 6.2959C13.225 6.6021 13.036 6.95334 12.898 7.34961C12.765 7.73987 12.699 8.15415 12.699 8.59245ZM21.193 9.06977V8.86263C21.193 8.16016 21.295 7.50872 21.499 6.90831C21.704 6.3019 21.998 5.77655 22.382 5.33225C22.766 4.88194 23.232 4.53371 23.778 4.28754C24.324 4.03537 24.937 3.90929 25.615 3.90929C26.3 3.90929 26.915 4.03537 27.461 4.28754C28.014 4.53371 28.482 4.88194 28.866 5.33225C29.257 5.77655 29.554 6.3019 29.758 6.90831C29.962 7.50872 30.064 8.16016 30.064 8.86263V9.06977C30.064 9.77224 29.962 10.4237 29.758 11.0241C29.554 11.6245 29.257 12.1498 28.866 12.6002C28.482 13.0445 28.017 13.3927 27.47 13.6449C26.93 13.891 26.318 14.0141 25.633 14.0141C24.949 14.0141 24.333 13.891 23.787 13.6449C23.241 13.3927 22.772 13.0445 22.382 12.6002C21.998 12.1498 21.704 11.6245 21.499 11.0241C21.295 10.4237 21.193 9.77224 21.193 9.06977ZM22.859 8.86263V9.06977C22.859 9.5561 22.916 10.0154 23.03 10.4477C23.145 10.874 23.316 11.2522 23.544 11.5825C23.778 11.9127 24.069 12.1739 24.417 12.366C24.766 12.5521 25.171 12.6452 25.633 12.6452C26.09 12.6452 26.489 12.5521 26.831 12.366C27.179 12.1739 27.467 11.9127 27.696 11.5825C27.924 11.2522 28.095 10.874 28.209 10.4477C28.329 10.0154 28.389 9.5561 28.389 9.06977V8.86263C28.389 8.38231 28.329 7.929 28.209 7.50271C28.095 7.07042 27.921 6.68916 27.687 6.35894C27.458 6.02271 27.17 5.75854 26.822 5.56641C26.48 5.37428 26.078 5.27821 25.615 5.27821C25.159 5.27821 24.757 5.37428 24.408 5.56641C24.066 5.75854 23.778 6.02271 23.544 6.35894C23.316 6.68916 23.145 7.07042 23.03 7.50271C22.916 7.929 22.859 8.38231 22.859 8.86263ZM36.28 4.08941V5.36827H31.011V4.08941H36.28ZM32.794 1.72081H34.46V11.4204C34.46 11.7506 34.511 11.9997 34.613 12.1679C34.715 12.336 34.848 12.447 35.01 12.5011C35.172 12.5551 35.346 12.5821 35.532 12.5821C35.67 12.5821 35.814 12.5701 35.964 12.5461C36.12 12.5161 36.237 12.4921 36.316 12.4741L36.325 13.834C36.192 13.876 36.018 13.915 35.802 13.9511C35.592 13.9931 35.337 14.0141 35.037 14.0141C34.628 14.0141 34.253 13.9331 33.911 13.7709C33.569 13.6088 33.296 13.3387 33.091 12.9604C32.893 12.5761 32.794 12.0598 32.794 11.4113V1.72081ZM37.659 9.06977V8.86263C37.659 8.16016 37.761 7.50872 37.965 6.90831C38.169 6.3019 38.463 5.77655 38.847 5.33225C39.232 4.88194 39.697 4.53371 40.243 4.28754C40.79 4.03537 41.402 3.90929 42.081 3.90929C42.765 3.90929 43.38 4.03537 43.927 4.28754C44.479 4.53371 44.947 4.88194 45.332 5.33225C45.722 5.77655 46.019 6.3019 46.223 6.90831C46.427 7.50872 46.53 8.16016 46.53 8.86263V9.06977C46.53 9.77224 46.427 10.4237 46.223 11.0241C46.019 11.6245 45.722 12.1498 45.332 12.6002C44.947 13.0445 44.482 13.3927 43.936 13.6449C43.395 13.891 42.783 14.0141 42.099 14.0141C41.414 14.0141 40.799 13.891 40.252 13.6449C39.706 13.3927 39.238 13.0445 38.847 12.6002C38.463 12.1498 38.169 11.6245 37.965 11.0241C37.761 10.4237 37.659 9.77224 37.659 9.06977ZM39.325 8.86263V9.06977C39.325 9.5561 39.382 10.0154 39.496 10.4477C39.61 10.874 39.781 11.2522 40.009 11.5825C40.243 11.9127 40.534 12.1739 40.883 12.366C41.231 12.5521 41.636 12.6452 42.099 12.6452C42.555 12.6452 42.954 12.5521 43.296 12.366C43.645 12.1739 43.933 11.9127 44.161 11.5825C44.389 11.2522 44.56 10.874 44.674 10.4477C44.794 10.0154 44.854 9.5561 44.854 9.06977V8.86263C44.854 8.38231 44.794 7.929 44.674 7.50271C44.56 7.07042 44.386 6.68916 44.152 6.35894C43.924 6.02271 43.636 5.75854 43.287 5.56641C42.945 5.37428 42.543 5.27821 42.081 5.27821C41.624 5.27821 41.222 5.37428 40.874 5.56641C40.531 5.75854 40.243 6.02271 40.009 6.35894C39.781 6.68916 39.61 7.07042 39.496 7.50271C39.382 7.929 39.325 8.38231 39.325 8.86263ZM54.339 11.2492C54.339 11.0091 54.285 10.7869 54.177 10.5828C54.075 10.3726 53.862 10.1835 53.537 10.0154C53.219 9.84129 52.739 9.69119 52.096 9.5651C51.556 9.45103 51.067 9.31594 50.628 9.15983C50.196 9.00373 49.827 8.8146 49.521 8.59245C49.22 8.3703 48.989 8.10912 48.827 7.80892C48.665 7.50872 48.584 7.15748 48.584 6.75521C48.584 6.37095 48.668 6.0077 48.836 5.66547C49.01 5.32324 49.253 5.02004 49.566 4.75586C49.884 4.49168 50.265 4.28454 50.709 4.13444C51.154 3.98434 51.649 3.90929 52.195 3.90929C52.976 3.90929 53.642 4.04738 54.195 4.32357C54.747 4.59975 55.17 4.969 55.465 5.43132C55.759 5.88762 55.906 6.39497 55.906 6.95334H54.24C54.24 6.68316 54.159 6.42198 53.997 6.16981C53.841 5.91164 53.609 5.6985 53.303 5.53038C53.003 5.36227 52.634 5.27821 52.195 5.27821C51.733 5.27821 51.358 5.35026 51.07 5.49436C50.787 5.63245 50.58 5.80957 50.448 6.02572C50.322 6.24186 50.259 6.47002 50.259 6.71018C50.259 6.8903 50.289 7.05241 50.349 7.19651C50.415 7.3346 50.529 7.46369 50.691 7.58377C50.854 7.69784 51.082 7.80592 51.376 7.90799C51.67 8.01005 52.045 8.11212 52.502 8.21419C53.3 8.39431 53.958 8.61046 54.474 8.86263C54.99 9.1148 55.375 9.42401 55.627 9.79026C55.879 10.1565 56.005 10.6008 56.005 11.1232C56.005 11.5494 55.915 11.9397 55.735 12.2939C55.561 12.6482 55.306 12.9544 54.969 13.2126C54.639 13.4647 54.243 13.6629 53.78 13.807C53.324 13.9451 52.811 14.0141 52.24 14.0141C51.382 14.0141 50.655 13.861 50.061 13.5548C49.467 13.2486 49.016 12.8523 48.71 12.366C48.404 11.8797 48.251 11.3663 48.251 10.826H49.926C49.95 11.2823 50.082 11.6455 50.322 11.9157C50.562 12.1799 50.857 12.369 51.205 12.4831C51.553 12.5911 51.898 12.6452 52.24 12.6452C52.697 12.6452 53.078 12.5851 53.384 12.4651C53.696 12.345 53.934 12.1799 54.096 11.9697C54.258 11.7596 54.339 11.5194 54.339 11.2492Z" fill="black" fill-opacity="0.87"/>
</svg>
