<svg width="125" height="28" viewBox="0 0 125 28" fill="none" xmlns="http://www.w3.org/2000/svg">
<path d="M9.43837 15.8302H11.1675C11.0775 16.6587 10.8403 17.4002 10.4561 18.0547C10.0718 18.7091 9.52843 19.2285 8.82595 19.6127C8.12348 19.991 7.24689 20.1801 6.19618 20.1801C5.42766 20.1801 4.72819 20.036 4.09776 19.7478C3.47334 19.4596 2.93598 19.0514 2.48568 18.523C2.03537 17.9886 1.68714 17.3492 1.44097 16.6047C1.20081 15.8542 1.08073 15.0196 1.08073 14.101V12.7951C1.08073 11.8765 1.20081 11.045 1.44097 10.3005C1.68714 9.54995 2.03838 8.90752 2.49468 8.37316C2.957 7.83879 3.51237 7.42752 4.16081 7.13932C4.80924 6.85113 5.53874 6.70703 6.34928 6.70703C7.33995 6.70703 8.17752 6.89316 8.86198 7.26541C9.54644 7.63766 10.0778 8.15401 10.4561 8.81445C10.8403 9.46889 11.0775 10.2284 11.1675 11.093H9.43837C9.35431 10.4806 9.19821 9.95522 8.97005 9.51693C8.7419 9.07263 8.41768 8.7304 7.9974 8.49023C7.57711 8.25007 7.02774 8.12999 6.34928 8.12999C5.76689 8.12999 5.25354 8.24107 4.80924 8.46322C4.37095 8.68537 4.0017 9.00058 3.7015 9.40885C3.4073 9.81713 3.18515 10.3065 3.03505 10.8768C2.88495 11.4472 2.8099 12.0807 2.8099 12.7771V14.101C2.8099 14.7435 2.87594 15.3469 3.00803 15.9112C3.14612 16.4756 3.35326 16.971 3.62945 17.3972C3.90564 17.8235 4.25687 18.1598 4.68316 18.4059C5.10945 18.6461 5.61379 18.7662 6.19618 18.7662C6.93468 18.7662 7.52308 18.6491 7.96137 18.4149C8.39967 18.1808 8.72989 17.8445 8.95204 17.4062C9.18019 16.968 9.3423 16.4426 9.43837 15.8302ZM19.2921 17.7485V10.2554H20.9672V20H19.3732L19.2921 17.7485ZM19.6073 15.6951L20.3008 15.6771C20.3008 16.3255 20.2317 16.9259 20.0936 17.4783C19.9615 18.0247 19.7454 18.499 19.4452 18.9013C19.145 19.3035 18.7517 19.6187 18.2654 19.8469C17.7791 20.069 17.1877 20.1801 16.4912 20.1801C16.0169 20.1801 15.5816 20.1111 15.1853 19.973C14.7951 19.8349 14.4588 19.6217 14.1766 19.3336C13.8945 19.0454 13.6753 18.6701 13.5192 18.2078C13.3691 17.7455 13.294 17.1901 13.294 16.5417V10.2554H14.9602V16.5597C14.9602 16.998 15.0082 17.3612 15.1043 17.6494C15.2063 17.9316 15.3414 18.1568 15.5095 18.3249C15.6837 18.487 15.8758 18.6011 16.0859 18.6671C16.3021 18.7331 16.5242 18.7662 16.7524 18.7662C17.4609 18.7662 18.0222 18.6311 18.4365 18.3609C18.8508 18.0847 19.148 17.7155 19.3281 17.2531C19.5142 16.7848 19.6073 16.2655 19.6073 15.6951ZM25.2192 11.7865V20H23.5531V10.2554H25.1741L25.2192 11.7865ZM28.2632 10.2014L28.2542 11.7504C28.1161 11.7204 27.984 11.7024 27.858 11.6964C27.7379 11.6844 27.5998 11.6784 27.4437 11.6784C27.0594 11.6784 26.7202 11.7384 26.426 11.8585C26.1318 11.9786 25.8826 12.1467 25.6785 12.3628C25.4743 12.579 25.3122 12.8372 25.1922 13.1374C25.0781 13.4316 25.003 13.7558 24.967 14.11L24.4987 14.3802C24.4987 13.7918 24.5557 13.2394 24.6698 12.7231C24.7899 12.2067 24.973 11.7504 25.2192 11.3542C25.4653 10.9519 25.7776 10.6397 26.1558 10.4175C26.5401 10.1894 26.9964 10.0753 27.5247 10.0753C27.6448 10.0753 27.7829 10.0903 27.939 10.1203C28.0951 10.1444 28.2032 10.1714 28.2632 10.2014ZM35.235 18.3339V13.3175C35.235 12.9332 35.157 12.6 35.0009 12.3178C34.8508 12.0296 34.6226 11.8075 34.3164 11.6514C34.0102 11.4953 33.6319 11.4172 33.1816 11.4172C32.7613 11.4172 32.3921 11.4893 32.0739 11.6334C31.7617 11.7775 31.5155 11.9666 31.3354 12.2007C31.1613 12.4349 31.0742 12.6871 31.0742 12.9572H29.4081C29.4081 12.609 29.4981 12.2638 29.6783 11.9215C29.8584 11.5793 30.1166 11.2701 30.4528 10.9939C30.795 10.7117 31.2033 10.4896 31.6776 10.3275C32.1579 10.1594 32.6923 10.0753 33.2807 10.0753C33.9892 10.0753 34.6136 10.1954 35.154 10.4355C35.7003 10.6757 36.1266 11.039 36.4328 11.5253C36.745 12.0056 36.9011 12.609 36.9011 13.3355V17.8746C36.9011 18.1988 36.9282 18.544 36.9822 18.9103C37.0422 19.2765 37.1293 19.5917 37.2434 19.8559V20H35.5052C35.4211 19.8079 35.3551 19.5527 35.3071 19.2345C35.259 18.9103 35.235 18.6101 35.235 18.3339ZM35.5232 14.092L35.5412 15.2628H33.8571C33.3828 15.2628 32.9595 15.3018 32.5872 15.3799C32.215 15.4519 31.9028 15.563 31.6506 15.7131C31.3984 15.8632 31.2063 16.0523 31.0742 16.2805C30.9421 16.5026 30.8761 16.7638 30.8761 17.064C30.8761 17.3702 30.9451 17.6494 31.0832 17.9016C31.2213 18.1538 31.4284 18.3549 31.7046 18.505C31.9868 18.6491 32.3321 18.7211 32.7403 18.7211C33.2507 18.7211 33.701 18.6131 34.0912 18.3969C34.4815 18.1808 34.7907 17.9166 35.0189 17.6044C35.253 17.2922 35.3791 16.989 35.3971 16.6948L36.1086 17.4963C36.0666 17.7485 35.9525 18.0277 35.7664 18.3339C35.5802 18.6401 35.3311 18.9343 35.0189 19.2165C34.7127 19.4927 34.3464 19.7238 33.9201 19.9099C33.4998 20.0901 33.0255 20.1801 32.4972 20.1801C31.8367 20.1801 31.2573 20.051 30.759 19.7929C30.2667 19.5347 29.8824 19.1895 29.6062 18.7572C29.336 18.3189 29.2009 17.8295 29.2009 17.2892C29.2009 16.7668 29.303 16.3075 29.5071 15.9112C29.7113 15.509 30.0055 15.1757 30.3897 14.9116C30.774 14.6414 31.2363 14.4372 31.7767 14.2992C32.317 14.1611 32.9205 14.092 33.5869 14.092H35.5232ZM43.6478 10.2554V11.5343H38.3792V10.2554H43.6478ZM40.1624 7.88683H41.8285V17.5864C41.8285 17.9166 41.8796 18.1658 41.9816 18.3339C42.0837 18.502 42.2158 18.6131 42.3779 18.6671C42.54 18.7211 42.7141 18.7482 42.9003 18.7482C43.0384 18.7482 43.1825 18.7361 43.3326 18.7121C43.4887 18.6821 43.6057 18.6581 43.6838 18.6401L43.6928 20C43.5607 20.042 43.3866 20.0811 43.1704 20.1171C42.9603 20.1591 42.7051 20.1801 42.4049 20.1801C41.9967 20.1801 41.6214 20.0991 41.2792 19.937C40.9369 19.7748 40.6638 19.5047 40.4596 19.1264C40.2615 18.7422 40.1624 18.2258 40.1624 17.5774V7.88683ZM45.0268 15.2358V15.0286C45.0268 14.3262 45.1288 13.6747 45.333 13.0743C45.5371 12.4679 45.8313 11.9426 46.2156 11.4983C46.5998 11.048 47.0652 10.6997 47.6115 10.4536C48.1579 10.2014 48.7703 10.0753 49.4488 10.0753C50.1332 10.0753 50.7486 10.2014 51.295 10.4536C51.8474 10.6997 52.3157 11.048 52.7 11.4983C53.0902 11.9426 53.3874 12.4679 53.5916 13.0743C53.7957 13.6747 53.8978 14.3262 53.8978 15.0286V15.2358C53.8978 15.9383 53.7957 16.5897 53.5916 17.1901C53.3874 17.7905 53.0902 18.3159 52.7 18.7662C52.3157 19.2105 51.8504 19.5587 51.304 19.8109C50.7636 20.057 50.1512 20.1801 49.4668 20.1801C48.7823 20.1801 48.1669 20.057 47.6205 19.8109C47.0742 19.5587 46.6058 19.2105 46.2156 18.7662C45.8313 18.3159 45.5371 17.7905 45.333 17.1901C45.1288 16.5897 45.0268 15.9383 45.0268 15.2358ZM46.6929 15.0286V15.2358C46.6929 15.7221 46.7499 16.1814 46.864 16.6137C46.9781 17.04 47.1492 17.4183 47.3774 17.7485C47.6115 18.0787 47.9027 18.3399 48.251 18.532C48.5992 18.7181 49.0045 18.8112 49.4668 18.8112C49.9231 18.8112 50.3224 18.7181 50.6646 18.532C51.0128 18.3399 51.301 18.0787 51.5292 17.7485C51.7573 17.4183 51.9284 17.04 52.0425 16.6137C52.1626 16.1814 52.2226 15.7221 52.2226 15.2358V15.0286C52.2226 14.5483 52.1626 14.095 52.0425 13.6687C51.9284 13.2364 51.7543 12.8552 51.5202 12.525C51.292 12.1887 51.0038 11.9246 50.6556 11.7324C50.3133 11.5403 49.9111 11.4442 49.4488 11.4442C48.9925 11.4442 48.5902 11.5403 48.2419 11.7324C47.8997 11.9246 47.6115 12.1887 47.3774 12.525C47.1492 12.8552 46.9781 13.2364 46.864 13.6687C46.7499 14.095 46.6929 14.5483 46.6929 15.0286ZM57.6994 11.7865V20H56.0333V10.2554H57.6544L57.6994 11.7865ZM60.7435 10.2014L60.7345 11.7504C60.5964 11.7204 60.4643 11.7024 60.3382 11.6964C60.2181 11.6844 60.08 11.6784 59.9239 11.6784C59.5397 11.6784 59.2004 11.7384 58.9062 11.8585C58.612 11.9786 58.3629 12.1467 58.1587 12.3628C57.9546 12.579 57.7925 12.8372 57.6724 13.1374C57.5583 13.4316 57.4833 13.7558 57.4472 14.11L56.9789 14.3802C56.9789 13.7918 57.036 13.2394 57.15 12.7231C57.2701 12.2067 57.4532 11.7504 57.6994 11.3542C57.9456 10.9519 58.2578 10.6397 58.636 10.4175C59.0203 10.1894 59.4766 10.0753 60.005 10.0753C60.125 10.0753 60.2631 10.0903 60.4192 10.1203C60.5753 10.1444 60.6834 10.1714 60.7435 10.2014Z" fill="#6EBD49"/>
<path d="M72.0392 14.8575H68.5359V13.4436H72.0392C72.7177 13.4436 73.2671 13.3355 73.6874 13.1194C74.1076 12.9032 74.4138 12.603 74.606 12.2187C74.8041 11.8345 74.9032 11.3962 74.9032 10.9039C74.9032 10.4536 74.8041 10.0303 74.606 9.63401C74.4138 9.23774 74.1076 8.91952 73.6874 8.67936C73.2671 8.4332 72.7177 8.31011 72.0392 8.31011H68.9412V20H67.203V6.88715H72.0392C73.0299 6.88715 73.8675 7.05827 74.5519 7.4005C75.2364 7.74273 75.7558 8.21705 76.11 8.82346C76.4642 9.42386 76.6413 10.1113 76.6413 10.8859C76.6413 11.7264 76.4642 12.4439 76.11 13.0383C75.7558 13.6327 75.2364 14.086 74.5519 14.3982C73.8675 14.7044 73.0299 14.8575 72.0392 14.8575ZM80.2989 6.16667V20H78.6328V6.16667H80.2989ZM79.9026 14.7585L79.2092 14.7314C79.2152 14.065 79.3142 13.4496 79.5064 12.8852C79.6985 12.3148 79.9687 11.8195 80.3169 11.3992C80.6651 10.9789 81.0794 10.6547 81.5597 10.4265C82.0461 10.1924 82.5834 10.0753 83.1718 10.0753C83.6522 10.0753 84.0845 10.1413 84.4687 10.2734C84.853 10.3995 85.1802 10.6037 85.4504 10.8859C85.7266 11.168 85.9367 11.5343 86.0808 11.9846C86.2249 12.4289 86.2969 12.9723 86.2969 13.6147V20H84.6218V13.5967C84.6218 13.0863 84.5468 12.6781 84.3967 12.3719C84.2466 12.0596 84.0274 11.8345 83.7392 11.6964C83.451 11.5523 83.0968 11.4803 82.6765 11.4803C82.2622 11.4803 81.884 11.5673 81.5417 11.7414C81.2055 11.9155 80.9143 12.1557 80.6681 12.4619C80.428 12.7681 80.2389 13.1194 80.1008 13.5156C79.9687 13.9059 79.9026 14.3202 79.9026 14.7585ZM88.3964 15.2358V15.0286C88.3964 14.3262 88.4985 13.6747 88.7027 13.0743C88.9068 12.4679 89.201 11.9426 89.5852 11.4983C89.9695 11.048 90.4348 10.6997 90.9812 10.4536C91.5276 10.2014 92.14 10.0753 92.8184 10.0753C93.5029 10.0753 94.1183 10.2014 94.6647 10.4536C95.217 10.6997 95.6854 11.048 96.0696 11.4983C96.4599 11.9426 96.7571 12.4679 96.9612 13.0743C97.1654 13.6747 97.2674 14.3262 97.2674 15.0286V15.2358C97.2674 15.9383 97.1654 16.5897 96.9612 17.1901C96.7571 17.7905 96.4599 18.3159 96.0696 18.7662C95.6854 19.2105 95.22 19.5587 94.6737 19.8109C94.1333 20.057 93.5209 20.1801 92.8364 20.1801C92.152 20.1801 91.5366 20.057 90.9902 19.8109C90.4438 19.5587 89.9755 19.2105 89.5852 18.7662C89.201 18.3159 88.9068 17.7905 88.7027 17.1901C88.4985 16.5897 88.3964 15.9383 88.3964 15.2358ZM90.0626 15.0286V15.2358C90.0626 15.7221 90.1196 16.1814 90.2337 16.6137C90.3478 17.04 90.5189 17.4183 90.747 17.7485C90.9812 18.0787 91.2724 18.3399 91.6206 18.532C91.9689 18.7181 92.3741 18.8112 92.8364 18.8112C93.2927 18.8112 93.692 18.7181 94.0342 18.532C94.3825 18.3399 94.6707 18.0787 94.8988 17.7485C95.127 17.4183 95.2981 17.04 95.4122 16.6137C95.5323 16.1814 95.5923 15.7221 95.5923 15.2358V15.0286C95.5923 14.5483 95.5323 14.095 95.4122 13.6687C95.2981 13.2364 95.124 12.8552 94.8898 12.525C94.6617 12.1887 94.3735 11.9246 94.0252 11.7324C93.683 11.5403 93.2807 11.4442 92.8184 11.4442C92.3621 11.4442 91.9598 11.5403 91.6116 11.7324C91.2694 11.9246 90.9812 12.1887 90.747 12.525C90.5189 12.8552 90.3478 13.2364 90.2337 13.6687C90.1196 14.095 90.0626 14.5483 90.0626 15.0286ZM103.483 10.2554V11.5343H98.2141V10.2554H103.483ZM99.9974 7.88683H101.663V17.5864C101.663 17.9166 101.715 18.1658 101.817 18.3339C101.919 18.502 102.051 18.6131 102.213 18.6671C102.375 18.7211 102.549 18.7482 102.735 18.7482C102.873 18.7482 103.017 18.7361 103.167 18.7121C103.324 18.6821 103.441 18.6581 103.519 18.6401L103.528 20C103.396 20.042 103.222 20.0811 103.005 20.1171C102.795 20.1591 102.54 20.1801 102.24 20.1801C101.832 20.1801 101.456 20.0991 101.114 19.937C100.772 19.7748 100.499 19.5047 100.295 19.1264C100.096 18.7422 99.9974 18.2258 99.9974 17.5774V7.88683ZM104.862 15.2358V15.0286C104.862 14.3262 104.964 13.6747 105.168 13.0743C105.372 12.4679 105.666 11.9426 106.051 11.4983C106.435 11.048 106.9 10.6997 107.446 10.4536C107.993 10.2014 108.605 10.0753 109.284 10.0753C109.968 10.0753 110.584 10.2014 111.13 10.4536C111.682 10.6997 112.151 11.048 112.535 11.4983C112.925 11.9426 113.222 12.4679 113.426 13.0743C113.631 13.6747 113.733 14.3262 113.733 15.0286V15.2358C113.733 15.9383 113.631 16.5897 113.426 17.1901C113.222 17.7905 112.925 18.3159 112.535 18.7662C112.151 19.2105 111.685 19.5587 111.139 19.8109C110.599 20.057 109.986 20.1801 109.302 20.1801C108.617 20.1801 108.002 20.057 107.455 19.8109C106.909 19.5587 106.441 19.2105 106.051 18.7662C105.666 18.3159 105.372 17.7905 105.168 17.1901C104.964 16.5897 104.862 15.9383 104.862 15.2358ZM106.528 15.0286V15.2358C106.528 15.7221 106.585 16.1814 106.699 16.6137C106.813 17.04 106.984 17.4183 107.212 17.7485C107.446 18.0787 107.738 18.3399 108.086 18.532C108.434 18.7181 108.839 18.8112 109.302 18.8112C109.758 18.8112 110.157 18.7181 110.5 18.532C110.848 18.3399 111.136 18.0787 111.364 17.7485C111.592 17.4183 111.763 17.04 111.877 16.6137C111.998 16.1814 112.058 15.7221 112.058 15.2358V15.0286C112.058 14.5483 111.998 14.095 111.877 13.6687C111.763 13.2364 111.589 12.8552 111.355 12.525C111.127 12.1887 110.839 11.9246 110.491 11.7324C110.148 11.5403 109.746 11.4442 109.284 11.4442C108.827 11.4442 108.425 11.5403 108.077 11.7324C107.735 11.9246 107.446 12.1887 107.212 12.525C106.984 12.8552 106.813 13.2364 106.699 13.6687C106.585 14.095 106.528 14.5483 106.528 15.0286ZM121.542 17.4153C121.542 17.1751 121.488 16.9529 121.38 16.7488C121.278 16.5387 121.065 16.3495 120.741 16.1814C120.422 16.0073 119.942 15.8572 119.3 15.7311C118.759 15.617 118.27 15.482 117.832 15.3258C117.399 15.1697 117.03 14.9806 116.724 14.7585C116.424 14.5363 116.192 14.2751 116.03 13.9749C115.868 13.6747 115.787 13.3235 115.787 12.9212C115.787 12.537 115.871 12.1737 116.039 11.8315C116.213 11.4893 116.457 11.1861 116.769 10.9219C117.087 10.6577 117.468 10.4506 117.913 10.3005C118.357 10.1504 118.852 10.0753 119.399 10.0753C120.179 10.0753 120.846 10.2134 121.398 10.4896C121.95 10.7658 122.374 11.135 122.668 11.5973C122.962 12.0536 123.109 12.561 123.109 13.1194H121.443C121.443 12.8492 121.362 12.588 121.2 12.3358C121.044 12.0777 120.813 11.8645 120.506 11.6964C120.206 11.5283 119.837 11.4442 119.399 11.4442C118.936 11.4442 118.561 11.5163 118.273 11.6604C117.991 11.7985 117.784 11.9756 117.651 12.1917C117.525 12.4079 117.462 12.636 117.462 12.8762C117.462 13.0563 117.492 13.2184 117.552 13.3625C117.618 13.5006 117.732 13.6297 117.895 13.7498C118.057 13.8639 118.285 13.9719 118.579 14.074C118.873 14.1761 119.248 14.2781 119.705 14.3802C120.503 14.5603 121.161 14.7765 121.677 15.0286C122.193 15.2808 122.578 15.59 122.83 15.9563C123.082 16.3225 123.208 16.7668 123.208 17.2892C123.208 17.7155 123.118 18.1057 122.938 18.46C122.764 18.8142 122.509 19.1204 122.172 19.3786C121.842 19.6308 121.446 19.8289 120.984 19.973C120.527 20.1111 120.014 20.1801 119.444 20.1801C118.585 20.1801 117.859 20.027 117.264 19.7208C116.67 19.4146 116.219 19.0183 115.913 18.532C115.607 18.0457 115.454 17.5323 115.454 16.992H117.129C117.153 17.4483 117.285 17.8115 117.525 18.0817C117.765 18.3459 118.06 18.535 118.408 18.6491C118.756 18.7572 119.101 18.8112 119.444 18.8112C119.9 18.8112 120.281 18.7512 120.587 18.6311C120.9 18.511 121.137 18.3459 121.299 18.1357C121.461 17.9256 121.542 17.6854 121.542 17.4153Z" fill="white" fill-opacity="0.87"/>
</svg>
