<svg width="192" height="192" viewBox="0 0 192 192" fill="none" xmlns="http://www.w3.org/2000/svg">
<path d="M106.809 76.0482C135.6 76.0482 159.453 94.523 163.692 118.647C174.43 125.657 181.472 137.403 181.472 150.711C181.472 171.527 164.243 188.523 142.585 189.548V189.598H36.8129V189.589C16.4112 189.175 0 172.508 0 152.007C0 136.853 8.96731 123.794 21.885 117.845C23.1295 104.879 34.9092 94.7139 49.2567 94.7139C53.1517 94.7139 56.8568 95.4647 60.2139 96.8157C70.6746 84.231 87.6483 76.0482 106.809 76.0482Z" fill="white"/>
<path d="M174.984 150.711C174.984 139.781 169.211 129.997 160.146 124.079L157.789 122.54L157.302 119.769C153.705 99.2958 133.042 82.5356 106.809 82.5355C89.4672 82.5355 74.3627 89.9427 65.2027 100.963L62.1796 104.6L57.792 102.834C55.1979 101.79 52.3144 101.201 49.2568 101.201C37.862 101.201 29.2316 109.201 28.3425 118.465L27.9861 122.177L24.5983 123.737C13.8954 128.666 6.48738 139.478 6.48733 152.007C6.48733 168.969 20.0664 182.761 36.9446 183.103L37.2966 183.111H141.383L142.278 183.068C160.794 182.192 174.984 167.755 174.984 150.711ZM181.469 151.198C181.202 171.792 164.074 188.531 142.585 189.548V189.598H36.8127V189.589C16.5705 189.178 0.256834 172.767 0.00316764 152.487L0 152.007C4.88134e-05 136.853 8.96723 123.793 21.8848 117.845C23.1294 104.879 34.9094 94.7139 49.2568 94.7139L49.6211 94.7159C53.2615 94.7598 56.7306 95.4596 59.8981 96.6909L60.2137 96.8157C70.6744 84.231 87.6484 76.0482 106.809 76.0482L107.483 76.0518C135.972 76.3375 159.486 94.7116 163.692 118.647C174.43 125.657 181.472 137.403 181.472 150.711L181.469 151.198Z" fill="#1976D2" fill-opacity="0.5"/>
<path d="M135.845 27.472V8.64392H161.769V47.693L191 70.4933L175.055 90.9349L165.399 83.4026V97.4947C153.823 78.804 131.48 66.7156 106.809 66.7155C87.3969 66.7155 69.6645 74.1039 57.3073 86.2167C54.7091 85.6691 52.0139 85.3812 49.2567 85.3812C47.8595 85.3812 46.475 85.4567 45.1087 85.6033V83.4026L35.4521 90.9349L19.5078 70.4933L105.253 3.61133L135.845 27.472Z" fill="#707B86"/>
<path d="M135.845 27.4721V8.64382H161.769V47.6932L191 70.4935L175.055 90.9349L165.399 83.4026V97.4946C153.914 78.9499 131.829 66.905 107.387 66.7178L106.809 66.7156C87.3969 66.7156 69.6644 74.104 57.3072 86.2168L56.8191 86.117C54.5352 85.6664 52.1787 85.4162 49.7731 85.3847L49.2568 85.3811C47.8596 85.3811 46.4748 85.4567 45.1085 85.6033V83.4026L35.4523 90.9349L19.5078 70.4935L105.254 3.61133L135.845 27.4721ZM23.6962 71.0108L35.9696 86.7461L48.0929 77.2899V82.4131C48.4798 82.4023 48.8679 82.3967 49.2568 82.3967L49.812 82.4004C52.036 82.4294 54.2225 82.6327 56.3553 82.9975C69.2271 70.9668 87.2306 63.7313 106.809 63.7313L107.409 63.7334C129.326 63.9012 149.534 73.2523 162.414 88.3633V77.2899L174.538 86.7461L186.811 71.0108L158.785 49.15V11.6282H138.829V33.5848L105.253 7.39608L23.6962 71.0108Z" fill="#455566"/>
<path d="M102.643 109.384C103.683 109.384 104.655 109.904 105.232 110.769L110.217 118.247H134.683C136.401 118.247 137.794 119.64 137.794 121.358V171.602C137.794 173.32 136.401 174.713 134.683 174.713H57.847C56.1289 174.713 54.7363 173.32 54.7363 171.602V121.358C54.7363 119.64 56.1289 118.247 57.847 118.247H62.2868V116.762C62.2869 115.044 63.6797 113.651 65.3978 113.651H71.3229C73.0408 113.651 74.4335 115.044 74.4335 116.762V118.247H83.4328L87.6521 110.939C88.2078 109.976 89.2348 109.384 90.3462 109.384H102.643ZM96.1006 127.111C85.9473 127.111 77.7164 135.343 77.7164 145.496C77.7164 155.649 85.9473 163.88 96.1006 163.88C106.254 163.88 114.485 155.649 114.485 145.496C114.485 135.343 106.254 127.111 96.1006 127.111ZM96.101 132.364C103.353 132.364 109.232 138.243 109.232 145.495C109.232 152.748 103.353 158.627 96.101 158.627C88.8486 158.627 82.9691 152.748 82.9691 145.495C82.9692 138.243 88.8486 132.364 96.101 132.364ZM122.209 125.798C121.207 125.798 120.394 126.61 120.394 127.613V128.579C120.394 129.582 121.207 130.394 122.209 130.394H129.741C130.743 130.394 131.556 129.582 131.556 128.579V127.613C131.556 126.61 130.743 125.798 129.741 125.798H122.209Z" fill="#314793"/>
<path d="M134.683 173.092V174.713H57.847V173.092H134.683ZM136.172 171.602V121.358C136.172 120.562 135.546 119.911 134.759 119.871L134.683 119.869H109.349L103.882 111.669C103.623 111.28 103.198 111.037 102.736 111.008L102.643 111.005H90.3462C89.8475 111.005 89.3843 111.255 89.1092 111.665L89.0565 111.75L84.3692 119.869H72.8117V116.762L72.8097 116.686C72.7712 115.924 72.1606 115.314 71.3993 115.275L71.3229 115.273H65.3978C64.5755 115.273 63.9087 115.94 63.9086 116.762V119.869H57.847C57.0505 119.869 56.4001 120.495 56.3601 121.282L56.3582 121.358V171.602C56.3582 172.425 57.0248 173.091 57.847 173.092V174.713C56.1289 174.713 54.7363 173.32 54.7363 171.602V121.358C54.7363 119.64 56.1289 118.247 57.847 118.247H62.2868V116.762C62.2869 115.044 63.6797 113.651 65.3978 113.651H71.3229C73.0408 113.651 74.4335 115.044 74.4335 116.762V118.247H83.4328L87.6521 110.939C88.2078 109.976 89.2348 109.384 90.3462 109.384H102.643C103.683 109.384 104.655 109.904 105.232 110.769L110.217 118.247H134.683C136.401 118.247 137.794 119.64 137.794 121.358V171.602C137.794 173.32 136.401 174.713 134.683 174.713V173.092C135.505 173.091 136.172 172.425 136.172 171.602ZM114.485 145.496C114.485 135.343 106.254 127.111 96.1006 127.111C85.9473 127.111 77.7164 135.343 77.7164 145.496C77.7164 155.649 85.9473 163.88 96.1006 163.88C106.254 163.88 114.485 155.649 114.485 145.496ZM107.611 145.495C107.611 139.238 102.617 134.147 96.3979 133.99L96.101 133.986C89.8436 133.986 84.7525 138.979 84.5949 145.198L84.591 145.495C84.591 151.852 89.7443 157.005 96.101 157.005V158.627C88.8486 158.627 82.9691 152.748 82.9691 145.495C82.9692 138.243 88.8486 132.364 96.101 132.364C103.353 132.364 109.232 138.243 109.232 145.495C109.232 152.748 103.353 158.627 96.101 158.627V157.005C102.458 157.005 107.611 151.852 107.611 145.495ZM118.772 128.579V127.613C118.772 125.714 120.312 124.176 122.209 124.176V125.798C121.207 125.798 120.394 126.61 120.394 127.613V128.579C120.394 129.582 121.207 130.394 122.209 130.394H129.741C130.743 130.394 131.556 129.582 131.556 128.579V127.613C131.556 126.61 130.743 125.798 129.741 125.798V124.176C131.58 124.176 133.081 125.62 133.173 127.436L133.178 127.613V128.579C133.178 130.418 131.734 131.919 129.918 132.012L129.741 132.016H122.209C120.371 132.016 118.869 130.572 118.777 128.756L118.772 128.579ZM129.741 124.176V125.798H122.209V124.176H129.741ZM116.105 145.754C115.968 156.598 107.203 165.363 96.3591 165.5L96.1006 165.502C85.1379 165.502 76.2346 156.684 76.0961 145.754L76.0945 145.496C76.0946 134.447 85.0515 125.489 96.1006 125.489L96.3591 125.491C107.289 125.63 116.107 134.533 116.107 145.496L116.105 145.754Z" fill="#263570"/>
</svg>
